HIERARCHY
ROOT Hips
{
	OFFSET	0.00	0.00	0.00
	CHANNELS 6 Xposition Yposition Zposition Zrotation Xrotation Yrotation
	JOINT LeftUpLeg
	{
		OFFSET	 0.126116	-0.014019	-0.065224
		CHANNELS 3 Zrotation Xrotation Yrotation
		JOINT LeftLeg
		{
			OFFSET	 0.000000	 0.000000	 0.569914
			CHANNELS 3 Zrotation Xrotation Yrotation
			JOINT LeftFoot
			{
				OFFSET	 0.000000	 0.000000	 0.544423
				CHANNELS 3 Zrotation Xrotation Yrotation
				JOINT LeftToeBase
				{
					OFFSET	 0.000000	 0.000000	 0.207117
					CHANNELS 3 Zrotation Xrotation Yrotation
					End Site
					{
						OFFSET	 0.000000	 0.000000	 0.207117
					}
				}
			}
		}
	}
	JOINT RightUpLeg
	{
		OFFSET	-0.124023	-0.008373	-0.065224
		CHANNELS 3 Zrotation Xrotation Yrotation
		JOINT RightLeg
		{
			OFFSET	 0.000000	 0.000000	 0.570047
			CHANNELS 3 Zrotation Xrotation Yrotation
			JOINT RightFoot
			{
				OFFSET	 0.000000	 0.000000	 0.544354
				CHANNELS 3 Zrotation Xrotation Yrotation
				JOINT RightToeBase
				{
					OFFSET	 0.000000	 0.000000	 0.207540
					CHANNELS 3 Zrotation Xrotation Yrotation
					End Site
					{
						OFFSET	 0.000000	 0.000000	 0.207540
					}
				}
			}
		}
	}
	JOINT Spine
	{
		OFFSET	 0.000184	-0.007763	 0.117403
		CHANNELS 3 Zrotation Xrotation Yrotation
		JOINT Spine1
		{
			OFFSET	 0.000000	 0.000000	 0.137269
			CHANNELS 3 Zrotation Xrotation Yrotation
			JOINT Spine2
			{
				OFFSET	 0.000000	 0.000000	 0.156879
				CHANNELS 3 Zrotation Xrotation Yrotation
				JOINT LeftShoulder
				{
					OFFSET	 0.080501	-0.002496	 0.160144
					CHANNELS 3 Zrotation Xrotation Yrotation
					JOINT LeftArm
					{
						OFFSET	 0.000000	 0.000000	 0.164363
						CHANNELS 3 Zrotation Xrotation Yrotation
						JOINT LeftForeArm
						{
							OFFSET	 0.000000	 0.000000	 0.364576
							CHANNELS 3 Zrotation Xrotation Yrotation
							JOINT LeftHand
							{
								OFFSET	 0.000000	 0.000000	 0.360812
								CHANNELS 3 Zrotation Xrotation Yrotation
								JOINT LeftHandIndex1
								{
									OFFSET	 0.000000	 0.000000	 0.086006
									CHANNELS 3 Zrotation Xrotation Yrotation
									JOINT LeftHandIndex2
									{
										OFFSET	 0.000000	 0.000000	 0.047236
										CHANNELS 3 Zrotation Xrotation Yrotation
										JOINT LeftHandIndex3
										{
											OFFSET	-0.004284	-0.000551	 0.038166
											CHANNELS 3 Zrotation Xrotation Yrotation
											End Site
											{
												OFFSET	-0.004284	-0.000551	 0.038166
											}
										}
									}
								}
							}
						}
					}
				}
				JOINT Neck
				{
					OFFSET	 0.000000	 0.000000	 0.176489
					CHANNELS 3 Zrotation Xrotation Yrotation
					JOINT Head
					{
						OFFSET	 0.000000	-0.001747	 0.077940
						CHANNELS 3 Zrotation Xrotation Yrotation
						End Site
						{
							OFFSET	 0.000000	-0.001747	 0.077940
						}
					}
				}
				JOINT RightShoulder
				{
					OFFSET	-0.080363	 0.000306	 0.159706
					CHANNELS 3 Zrotation Xrotation Yrotation
					JOINT RightArm
					{
						OFFSET	 0.000000	 0.000000	 0.164196
						CHANNELS 3 Zrotation Xrotation Yrotation
						JOINT RightForeArm
						{
							OFFSET	 0.000000	 0.000000	 0.365611
							CHANNELS 3 Zrotation Xrotation Yrotation
							JOINT RightHand
							{
								OFFSET	 0.000000	 0.000000	 0.360648
								CHANNELS 3 Zrotation Xrotation Yrotation
								JOINT RightHandIndex1
								{
									OFFSET	 0.000000	 0.000000	 0.069977
									CHANNELS 3 Zrotation Xrotation Yrotation
									JOINT RightHandIndex2
									{
										OFFSET	 0.000000	 0.000000	 0.052305
										CHANNELS 3 Zrotation Xrotation Yrotation
										JOINT RightHandIndex3
										{
											OFFSET	 0.009002	-0.000782	 0.042196
											CHANNELS 3 Zrotation Xrotation Yrotation
											End Site
											{
												OFFSET	 0.009002	-0.000782	 0.042196
											}
										}
									}
								}
							}
						}
					}
				}
			}
		}
	}
}
MOTION
Frames:    10
Frame Time: 0.03333334
-0.667333	-7.079163	 0.766907	-19.998000	 2.623917	 0.362666	 2.429038	-34.495570	 172.564300	-5.105445	-66.351040	-5.315764	 176.311000	 87.574400	-178.858500	-2.341848	 35.503650	-0.161046	 0.322339	-35.953960	-177.552000	 1.441610	-70.194140	 4.332820	-177.147900	 85.978830	 178.986500	 2.406006	 20.513540	-0.162892	-1.437885	 14.309260	 1.381138	-1.685579	 7.445273	-1.829610	-1.612709	 4.433535	-0.044329	-127.302900	 89.442570	-141.113500	 47.296280	 61.151970	-76.136540	-13.124890	-2.366828	-22.412420	 1.335468	-2.239957	-5.356928	-3.812334	 37.924440	-2.927599	-2.450526	 36.184240	 0.754587	-1.378229	 35.397820	-2.634230	 1.760546	 2.284049	-3.073781	 0.283335	 7.577099	 3.576122	 94.204320	 86.007420	 171.087500	-54.027180	 70.857670	 73.093890	-6.553704	-12.199000	 23.815880	-27.614440	-3.212560	 9.535274	 6.437017	 35.671460	-0.771858	 2.830251	 35.756010	-7.813440	-2.350882	 35.473990	 5.254307
-0.661169	-7.076600	 0.788381	-21.786950	 5.320287	-0.252476	 3.233390	-35.536460	 173.348600	-4.252887	-63.230980	-3.721746	 171.464600	 88.917550	-173.536100	-2.360404	 33.024690	-0.102238	 1.463783	-37.562810	-177.129300	-0.216679	-67.090070	 3.450501	-173.890100	 87.551350	 175.593100	 2.406894	 19.560400	-0.181812	-1.426443	 14.473750	 1.499641	-1.556541	 7.133236	-1.665947	-1.297050	 4.018847	-0.040356	-119.823200	 89.326810	-148.628200	 44.001470	 60.850130	-74.478740	-13.543470	-2.337964	-21.155190	 1.561338	-2.268188	-5.352543	-3.812334	 37.924440	-2.927599	-2.450526	 36.184240	 0.754587	-1.378229	 35.397820	-2.634230	 2.100902	 1.969458	-2.890196	 0.569841	 7.205073	 4.603366	 94.449580	 86.072400	 170.710000	-53.889870	 71.753530	 72.234670	-6.544810	-11.711760	 22.734940	-27.953330	-3.221083	 9.519930	 6.437017	 35.671460	-0.771858	 2.830251	 35.756010	-7.813440	-2.350882	 35.473990	 5.254307
-0.657403	-7.076585	 0.803731	-23.017840	 7.044008	-0.666199	 4.210792	-35.752680	 173.993100	-3.960621	-60.669480	-2.625498	 116.398600	 89.819780	-118.049600	-2.368493	 31.763730	-0.073304	 1.860189	-38.268080	-176.636000	-2.101965	-64.683610	 1.874823	-168.620500	 88.673670	 169.721000	 2.407097	 19.281060	-0.187338	-1.472501	 15.011820	 1.662791	-1.519953	 7.252954	-1.521288	-1.126481	 3.883057	-0.036385	-118.109500	 89.307330	-150.433500	 41.651080	 60.958970	-74.560500	-13.646600	-2.563223	-19.802410	 2.748657	-2.308670	-5.337950	-3.812334	 37.924440	-2.927599	-2.450526	 36.184240	 0.754587	-1.378229	 35.397820	-2.634230	 2.259854	 1.891487	-2.743861	 0.759467	 7.029027	 4.804546	 94.631080	 86.138270	 170.469500	-53.028910	 72.828800	 70.616940	-6.961925	-11.159400	 21.150870	-28.865640	-3.236657	 9.483919	 6.437017	 35.671460	-0.771858	 2.830251	 35.756010	-7.813440	-2.350882	 35.473990	 5.254307
-0.656790	-7.076477	 0.814284	-22.840080	 8.261912	-0.688918	 4.470673	-36.214880	 174.146100	-3.298841	-58.910510	-1.778024	 20.710120	 89.551510	-21.952050	-2.368687	 31.733300	-0.072610	 1.224249	-38.563990	-176.572800	-2.185583	-62.784770	 1.252914	-160.001100	 89.234090	 160.847700	 2.406688	 19.813900	-0.176791	-1.865910	 15.172200	 1.547634	-1.833245	 7.431506	-1.709639	-1.184847	 3.959876	-0.037474	-123.545300	 89.448580	-145.214500	 40.797680	 61.202590	-75.874210	-14.215470	-2.638362	-19.116090	 3.308085	-2.334743	-5.328584	-3.812334	 37.924440	-2.927599	-2.450526	 36.184240	 0.754587	-1.378229	 35.397820	-2.634230	 2.075699	 2.033432	-2.796735	 0.866810	 6.999059	 4.522071	 94.540470	 86.030540	 170.454300	-50.744350	 74.321300	 67.286410	-7.192235	-10.587020	 19.532670	-29.956100	-3.253114	 9.441330	 6.437017	 35.671460	-0.771858	 2.830251	 35.756010	-7.813440	-2.350882	 35.473990	 5.254307
-0.659130	-7.079846	 0.821868	-22.172070	 9.015630	-0.656885	 4.320657	-36.286730	 174.091600	-2.535430	-57.795030	-1.187733	 11.987970	 89.225700	-12.901850	-2.373349	 30.936460	-0.054634	 0.777541	-38.326740	-176.817600	-0.887989	-61.582060	 2.055023	-152.634400	 89.435940	 153.947100	 2.403792	 22.074770	-0.131598	-2.249399	 15.123680	 1.556313	-2.166784	 7.461151	-1.981448	-1.306410	 3.969890	-0.041205	-155.942600	 89.687220	-112.982200	 42.040910	 60.956450	-78.133170	-14.327860	-2.713679	-20.133310	 3.237367	-2.308139	-5.333956	-3.812334	 37.924440	-2.927599	-2.450526	 36.184240	 0.754587	-1.378229	 35.397820	-2.634230	 1.808878	 1.968116	-3.033661	 0.913946	 7.019519	 3.972068	 94.169490	 85.745770	 170.702800	-47.581300	 75.928050	 62.832580	-7.098563	-10.204120	 18.458480	-30.872390	-3.262897	 9.406535	 6.437017	 35.671460	-0.771858	 2.830251	 35.756010	-7.813440	-2.350882	 35.473990	 5.254307
-0.662388	-7.084746	 0.825665	-21.578420	 9.366854	-0.757335	 4.125650	-36.133550	 174.201400	-2.201348	-57.087730	-1.027417	 9.515992	 89.016620	-10.344810	-2.375027	 30.634410	-0.047893	 0.846885	-38.020370	-176.877600	 0.104654	-61.012260	 2.964084	-157.144200	 89.348980	 158.994000	 2.399208	 24.209860	-0.088102	-2.470556	 14.819080	 1.792985	-2.362018	 7.350654	-2.062827	-1.379228	 3.864892	-0.044768	 163.600100	 89.715390	-72.633970	 44.457960	 60.406300	-80.565050	-14.175990	-2.709765	-21.872800	 2.679638	-2.264002	-5.345473	-3.812334	 37.924440	-2.927599	-2.450526	 36.184240	 0.754587	-1.378229	 35.397820	-2.634230	 1.638026	 1.895370	-3.231354	 0.950625	 6.848908	 3.612816	 93.922140	 85.558780	 170.899400	-46.279090	 76.696340	 60.385010	-6.940592	-10.017190	 18.192520	-30.969010	-3.264916	 9.401109	 6.437017	 35.671460	-0.771858	 2.830251	 35.756010	-7.813440	-2.350882	 35.473990	 5.254307
-0.666736	-7.092191	 0.828031	-20.757500	 9.487077	-0.747334	 3.895103	-35.694930	 174.245300	-1.856867	-56.479360	-0.895881	 9.270887	 89.044690	-10.035090	-2.374084	 30.805780	-0.051716	 0.766001	-37.363310	-176.985300	 0.689412	-60.560550	 3.420491	-166.872700	 88.946860	 169.030300	 2.399110	 24.246940	-0.087335	-2.624798	 14.477790	 1.878054	-2.526140	 7.278503	-2.094053	-1.464263	 3.805584	-0.048287	 141.579000	 89.666620	-50.730080	 47.300960	 59.586820	-83.219540	-13.372670	-2.746179	-23.215300	 2.440774	-2.233881	-5.351211	-3.812334	 37.924440	-2.927599	-2.450526	 36.184240	 0.754587	-1.378229	 35.397820	-2.634230	 1.496993	 1.803050	-3.477668	 0.919161	 6.809410	 3.585953	 93.820480	 85.501290	 171.021500	-46.568420	 76.937490	 59.596950	-7.332602	-10.054350	 18.283350	-31.090830	-3.265596	 9.397055	 6.437017	 35.671460	-0.771858	 2.830251	 35.756010	-7.813440	-2.350882	 35.473990	 5.254307
-0.670507	-7.099207	 0.828644	-19.826260	 9.527862	-0.565579	 3.637237	-35.369370	 174.098800	-1.284817	-56.152360	-0.595979	 11.621970	 89.293910	-12.206800	-2.375076	 30.626060	-0.047695	 0.200949	-36.714760	-177.200500	 1.138773	-60.201450	 3.414917	-170.712500	 88.673970	 172.904400	 2.399599	 24.057300	-0.091234	-2.746225	 14.131590	 1.726290	-2.667747	 7.336141	-2.140332	-1.560813	 3.879793	-0.050459	 141.342700	 89.679790	-50.602310	 49.619370	 59.193830	-85.127170	-12.435120	-2.878861	-23.654940	 2.738319	-2.231058	-5.349855	-3.812334	 37.924440	-2.927599	-2.450526	 36.184240	 0.754587	-1.378229	 35.397820	-2.634230	 1.358667	 1.777285	-3.489635	 0.874757	 6.962805	 3.423365	 93.874280	 85.558690	 171.004400	-48.566820	 76.554050	 61.167850	-8.001088	-10.146260	 18.515010	-31.090410	-3.265283	 9.398096	 6.437017	 35.671460	-0.771858	 2.830251	 35.756010	-7.813440	-2.350882	 35.473990	 5.254307
-0.674933	-7.106926	 0.827788	-18.979550	 9.404453	-0.450292	 3.532790	-34.882070	 174.004500	-0.651944	-56.046180	-0.155676	 23.122170	 89.682250	-23.430580	-2.372967	 31.003420	-0.056146	-0.300173	-36.101040	-177.277100	 1.711115	-60.041380	 3.562804	-173.144100	 88.390390	 175.441000	 2.400272	 23.782580	-0.096875	-2.684088	 13.852110	 1.912038	-2.662428	 7.464029	-2.159784	-1.664034	 4.039956	-0.051467	 129.944200	 89.616920	-39.237590	 52.322600	 58.709680	-86.954290	-11.409850	-2.887296	-23.518370	 2.829715	-2.236628	-5.348504	-3.812334	 37.924440	-2.927599	-2.450526	 36.184240	 0.754587	-1.378229	 35.397820	-2.634230	 1.237586	 1.715525	-3.598332	 0.767494	 7.277359	 2.935702	 93.755880	 85.557500	 171.261700	-51.520770	 75.675490	 64.183000	-8.338934	-10.250520	 19.136660	-30.485410	-3.261742	 9.415668	 6.437017	 35.671460	-0.771858	 2.830251	 35.756010	-7.813440	-2.350882	 35.473990	 5.254307
-0.677673	-7.110906	 0.826796	-18.387450	 9.344760	-0.266777	 3.395459	-34.823590	 173.876500	-0.283707	-56.169680	 0.052468	 46.519180	 89.841740	-46.693610	-2.370223	 31.477430	-0.066808	-0.599120	-35.661520	-177.491900	 2.233014	-60.068210	 3.819555	-173.936200	 88.238300	 176.381500	 2.400373	 23.738710	-0.097772	-2.691978	 13.713420	 1.889587	-2.694688	 7.554053	-2.215993	-1.731441	 4.141822	-0.052011	 122.543900	 89.550190	-31.871270	 53.729710	 58.234240	-87.534270	-10.092590	-3.010289	-23.199490	 3.310236	-2.244151	-5.344280	-3.812334	 37.924440	-2.927599	-2.450526	 36.184240	 0.754587	-1.378229	 35.397820	-2.634230	 1.155776	 1.749700	-3.671209	 0.708191	 7.416021	 2.764505	 93.659520	 85.532220	 171.430400	-52.618060	 75.200940	 65.513000	-8.292009	-10.377640	 19.648290	-30.078820	-3.257902	 9.428889	 6.437017	 35.671460	-0.771858	 2.830251	 35.756010	-7.813440	-2.350882	 35.473990	 5.254307
